<svg xmlns="http://www.w3.org/2000/svg" viewBox="0 0 320 200" role="img" aria-label="Logo condominio">
  <defs>
    <linearGradient id="skyline" x1="0" y1="0" x2="0" y2="1">
      <stop offset="0" stop-color="#283a6b"/>
      <stop offset="1" stop-color="#1f2f5a"/>
    </linearGradient>
  </defs>
  <path d="M20 180c40-10 70-12 110-12s90 2 170 12c-22 10-63 18-140 18S52 190 20 180z" fill="#1f2f5a"/>
  <g fill="url(#skyline)">
    <path d="M60 170V60l28-14v124H60z"/>
    <path d="M95 170V40l36-18v148H95z"/>
    <path d="M136 170V70l24-12v112h-24z"/>
    <path d="M166 170V54l34-18v134h-34z"/>
    <path d="M206 170V82l26-12v100h-26z"/>
  </g>
  <g fill="#ffffff" opacity="0.85">
    <rect x="70" y="78" width="8" height="10"/>
    <rect x="70" y="98" width="8" height="10"/>
    <rect x="70" y="118" width="8" height="10"/>
    <rect x="105" y="65" width="10" height="12"/>
    <rect x="105" y="90" width="10" height="12"/>
    <rect x="105" y="115" width="10" height="12"/>
    <rect x="144" y="92" width="8" height="10"/>
    <rect x="144" y="112" width="8" height="10"/>
    <rect x="176" y="74" width="10" height="12"/>
    <rect x="176" y="100" width="10" height="12"/>
    <rect x="176" y="126" width="10" height="12"/>
    <rect x="214" y="98" width="8" height="10"/>
    <rect x="214" y="120" width="8" height="10"/>
  </g>
</svg>
